<?xml version="1.0" standalone="no"?><!DOCTYPE svg PUBLIC "-//W3C//DTD SVG 1.1//EN" "http://www.w3.org/Graphics/SVG/1.1/DTD/svg11.dtd"><svg t="1576547493496" class="icon" viewBox="0 0 1024 1024" version="1.1" xmlns="http://www.w3.org/2000/svg" p-id="6900" xmlns:xlink="http://www.w3.org/1999/xlink" width="200" height="200"><defs><style type="text/css">@font-face { font-family: element-icons; src: url("chrome-extension://moombeodfomdpjnpocobemoiaemednkg/fonts/element-icons.woff") format("woff"), url("chrome-extension://moombeodfomdpjnpocobemoiaemednkg/fonts/element-icons.ttf ") format("truetype"); }
</style></defs><path d="M542.117647 542.117647h210.823529c18.070588 0 30.117647 12.047059 30.117648 30.117647s-12.047059 30.117647-30.117648 30.117647H481.882353V271.058824c0-18.070588 12.047059-30.117647 30.117647-30.117648s30.117647 12.047059 30.117647 30.117648V542.117647z m-30.117647 481.882353C228.894118 1024 0 795.105882 0 512S228.894118 0 512 0 1024 228.894118 1024 512 795.105882 1024 512 1024z m0-60.235294c246.964706 0 451.764706-204.8 451.764706-451.764706S758.964706 60.235294 512 60.235294 60.235294 265.035294 60.235294 512 265.035294 963.764706 512 963.764706z" fill="#1296db" p-id="6901"></path></svg>